<svg xmlns="http://www.w3.org/2000/svg" xmlns:xlink="http://www.w3.org/1999/xlink" width="5000" zoomAndPan="magnify" viewBox="0 0 3750 3749.999967" height="5000" preserveAspectRatio="xMidYMid meet" version="1.0"><defs><clipPath id="e1fba26f21"><path d="M 422 136 L 3245 136 L 3245 1704 L 422 1704 Z M 422 136 " clip-rule="nonzero"/></clipPath><clipPath id="b5163d38fd"><path d="M 429.636719 136.175781 L 3245.375 439.214844 L 3093.859375 1847.082031 L 278.117188 1544.046875 Z M 429.636719 136.175781 " clip-rule="nonzero"/></clipPath><clipPath id="0e8bd6e737"><path d="M 429.636719 136.175781 L 3245.375 439.214844 L 3093.859375 1847.082031 L 278.117188 1544.046875 Z M 429.636719 136.175781 " clip-rule="nonzero"/></clipPath><clipPath id="53b1d0cc3e"><path d="M 477 991 L 3295 991 L 3295 2597 L 477 2597 Z M 477 991 " clip-rule="nonzero"/></clipPath><clipPath id="50916638cb"><path d="M 476.535156 1368.964844 L 3283.277344 991.59375 L 3471.964844 2394.964844 L 665.222656 2772.339844 Z M 476.535156 1368.964844 " clip-rule="nonzero"/></clipPath><clipPath id="275daf2f47"><path d="M 476.535156 1368.964844 L 3283.277344 991.59375 L 3471.964844 2394.964844 L 665.222656 2772.339844 Z M 476.535156 1368.964844 " clip-rule="nonzero"/></clipPath><clipPath id="a25a23fdd9"><path d="M 559 2197.863281 L 3390 2197.863281 L 3390 3613.863281 L 559 3613.863281 Z M 559 2197.863281 " clip-rule="nonzero"/></clipPath></defs><rect x="-375" width="4500" fill="#ffffff" y="-374.999997" height="4499.99996" fill-opacity="1"/><rect x="-375" width="4500" fill="#ffffff" y="-374.999997" height="4499.99996" fill-opacity="1"/><g clip-path="url(#e1fba26f21)"><g clip-path="url(#b5163d38fd)"><g clip-path="url(#0e8bd6e737)"><path fill="#7ebc89" d="M 3244.1875 439.085938 C 3160.492188 1216.742188 2462.457031 1779.128906 1684.796875 1695.4375 C 907.140625 1611.742188 347.132812 913.964844 430.824219 136.304688 Z M 3244.1875 439.085938 " fill-opacity="1" fill-rule="nonzero"/></g></g></g><g clip-path="url(#53b1d0cc3e)"><g clip-path="url(#50916638cb)"><g clip-path="url(#275daf2f47)"><path fill="#c1dbb3" d="M 3282.09375 991.75 C 3386.316406 1766.925781 2842.582031 2479.585938 2067.40625 2583.8125 C 1292.234375 2688.035156 581.945312 2143.980469 477.71875 1368.808594 Z M 3282.09375 991.75 " fill-opacity="1" fill-rule="nonzero"/></g></g></g><g clip-path="url(#a25a23fdd9)"><path fill="#f2c078" d="M 3389.050781 2197.863281 C 3389.050781 2980.015625 2755.199219 3613.863281 1973.050781 3613.863281 C 1190.902344 3613.863281 559.441406 2980.015625 559.441406 2197.863281 Z M 3389.050781 2197.863281 " fill-opacity="1" fill-rule="nonzero"/></g></svg>